<mxfile host="app.diagrams.net" agent="Mozilla/5.0 (X11; Linux x86_64) AppleWebKit/537.36 (KHTML, like Gecko) Chrome/129.0.0.0 Safari/537.36" version="24.7.17" pages="2">
  <diagram id="C5RBs43oDa-KdzZeNtuy" name="Câu 1">
    <mxGraphModel dx="743" dy="409" grid="1" gridSize="10" guides="1" tooltips="1" connect="1" arrows="1" fold="1" page="1" pageScale="1" pageWidth="827" pageHeight="1169" math="0" shadow="0">
      <root>
        <mxCell id="WIyWlLk6GJQsqaUBKTNV-0" />
        <mxCell id="WIyWlLk6GJQsqaUBKTNV-1" parent="WIyWlLk6GJQsqaUBKTNV-0" />
        <mxCell id="TZNdTG-0W8LM1fClT4Yw-10" style="edgeStyle=orthogonalEdgeStyle;rounded=0;orthogonalLoop=1;jettySize=auto;html=1;exitX=0.5;exitY=1;exitDx=0;exitDy=0;" edge="1" parent="WIyWlLk6GJQsqaUBKTNV-1" source="TZNdTG-0W8LM1fClT4Yw-0" target="TZNdTG-0W8LM1fClT4Yw-9">
          <mxGeometry relative="1" as="geometry" />
        </mxCell>
        <mxCell id="TZNdTG-0W8LM1fClT4Yw-0" value="Start (Find the area of a circle)" style="ellipse;whiteSpace=wrap;html=1;" vertex="1" parent="WIyWlLk6GJQsqaUBKTNV-1">
          <mxGeometry x="339" y="80" width="150" height="80" as="geometry" />
        </mxCell>
        <mxCell id="TZNdTG-0W8LM1fClT4Yw-6" style="edgeStyle=orthogonalEdgeStyle;rounded=0;orthogonalLoop=1;jettySize=auto;html=1;exitX=0.5;exitY=1;exitDx=0;exitDy=0;entryX=0.5;entryY=0;entryDx=0;entryDy=0;" edge="1" parent="WIyWlLk6GJQsqaUBKTNV-1" source="TZNdTG-0W8LM1fClT4Yw-1" target="TZNdTG-0W8LM1fClT4Yw-4">
          <mxGeometry relative="1" as="geometry" />
        </mxCell>
        <mxCell id="TZNdTG-0W8LM1fClT4Yw-1" value="Input &lt;font face=&quot;math&quot;&gt;r (radius)&lt;/font&gt;" style="shape=parallelogram;perimeter=parallelogramPerimeter;whiteSpace=wrap;html=1;fixedSize=1;" vertex="1" parent="WIyWlLk6GJQsqaUBKTNV-1">
          <mxGeometry x="354" y="300" width="120" height="60" as="geometry" />
        </mxCell>
        <mxCell id="TZNdTG-0W8LM1fClT4Yw-8" style="edgeStyle=orthogonalEdgeStyle;rounded=0;orthogonalLoop=1;jettySize=auto;html=1;exitX=0.5;exitY=1;exitDx=0;exitDy=0;entryX=0.5;entryY=0;entryDx=0;entryDy=0;" edge="1" parent="WIyWlLk6GJQsqaUBKTNV-1" source="TZNdTG-0W8LM1fClT4Yw-4" target="TZNdTG-0W8LM1fClT4Yw-7">
          <mxGeometry relative="1" as="geometry" />
        </mxCell>
        <mxCell id="TZNdTG-0W8LM1fClT4Yw-4" value="Calculate area &lt;span class=&quot;katex&quot;&gt;&lt;span class=&quot;katex-mathml&quot;&gt;&lt;math xmlns=&quot;http://www.w3.org/1998/Math/MathML&quot;&gt;&lt;mrow&gt;&lt;mi&gt;A&lt;/mi&gt;&lt;mo&gt;= r*r*PI&lt;/mo&gt;&lt;/mrow&gt;&lt;/math&gt;&lt;/span&gt;&lt;/span&gt;" style="rounded=0;whiteSpace=wrap;html=1;" vertex="1" parent="WIyWlLk6GJQsqaUBKTNV-1">
          <mxGeometry x="354" y="399" width="120" height="60" as="geometry" />
        </mxCell>
        <mxCell id="TZNdTG-0W8LM1fClT4Yw-13" style="edgeStyle=orthogonalEdgeStyle;rounded=0;orthogonalLoop=1;jettySize=auto;html=1;exitX=0.5;exitY=1;exitDx=0;exitDy=0;entryX=0.5;entryY=0;entryDx=0;entryDy=0;" edge="1" parent="WIyWlLk6GJQsqaUBKTNV-1" source="TZNdTG-0W8LM1fClT4Yw-7" target="TZNdTG-0W8LM1fClT4Yw-12">
          <mxGeometry relative="1" as="geometry" />
        </mxCell>
        <mxCell id="TZNdTG-0W8LM1fClT4Yw-7" value="Output A (area)" style="shape=parallelogram;perimeter=parallelogramPerimeter;whiteSpace=wrap;html=1;fixedSize=1;" vertex="1" parent="WIyWlLk6GJQsqaUBKTNV-1">
          <mxGeometry x="354" y="499" width="120" height="60" as="geometry" />
        </mxCell>
        <mxCell id="TZNdTG-0W8LM1fClT4Yw-11" style="edgeStyle=orthogonalEdgeStyle;rounded=0;orthogonalLoop=1;jettySize=auto;html=1;exitX=0.5;exitY=1;exitDx=0;exitDy=0;entryX=0.5;entryY=0;entryDx=0;entryDy=0;" edge="1" parent="WIyWlLk6GJQsqaUBKTNV-1" source="TZNdTG-0W8LM1fClT4Yw-9" target="TZNdTG-0W8LM1fClT4Yw-1">
          <mxGeometry relative="1" as="geometry" />
        </mxCell>
        <mxCell id="TZNdTG-0W8LM1fClT4Yw-9" value="PI = 3.14159" style="rounded=0;whiteSpace=wrap;html=1;" vertex="1" parent="WIyWlLk6GJQsqaUBKTNV-1">
          <mxGeometry x="354" y="200" width="120" height="60" as="geometry" />
        </mxCell>
        <mxCell id="TZNdTG-0W8LM1fClT4Yw-12" value="End" style="ellipse;whiteSpace=wrap;html=1;" vertex="1" parent="WIyWlLk6GJQsqaUBKTNV-1">
          <mxGeometry x="354" y="600" width="120" height="80" as="geometry" />
        </mxCell>
      </root>
    </mxGraphModel>
  </diagram>
  <diagram id="mDsLk_cTiIi7pjBSK149" name="Câu 2">
    <mxGraphModel dx="1114" dy="613" grid="1" gridSize="10" guides="1" tooltips="1" connect="1" arrows="1" fold="1" page="1" pageScale="1" pageWidth="827" pageHeight="1169" math="0" shadow="0">
      <root>
        <mxCell id="0" />
        <mxCell id="1" parent="0" />
      </root>
    </mxGraphModel>
  </diagram>
</mxfile>
